<svg width="1440" height="649" viewBox="0 0 1440 649" fill="none" xmlns="http://www.w3.org/2000/svg">
<mask id="path-1-inside-1_255_7" fill="white">
<path d="M0 0H1440V649H0V0Z"/>
</mask>
<path d="M0 0H1440V649H0V0Z" fill="black"/>
<path d="M0 7H1440V-7H0V7ZM1440 642H0V656H1440V642Z" fill="#FFD500" mask="url(#path-1-inside-1_255_7)"/>
<path d="M1223.05 398.738C1221.36 398.1 1220.42 397.207 1220.21 396.06C1220.19 394.983 1220.52 393.825 1221.21 392.587C1223.77 388.64 1227.07 384.438 1231.12 379.981C1235.27 375.782 1239.47 371.489 1243.7 367.103C1248.04 362.974 1251.83 359.172 1255.08 355.695C1254.33 355.412 1253.64 355.257 1253.01 355.232C1252.45 355.019 1251.79 354.771 1251.04 354.488C1245.24 352.291 1241.6 349.2 1240.12 345.215C1238.89 341.115 1239.06 337.007 1240.62 332.892C1240.97 331.957 1241.29 331.116 1241.58 330.368C1242.12 329.503 1242.62 328.733 1243.09 328.055C1243.96 326.888 1245.46 325.208 1247.57 323.015C1249.94 320.705 1251.99 320.092 1253.72 321.175C1255.12 322.561 1255.57 323.908 1255.08 325.218C1254.37 327.088 1252.98 328.488 1250.92 329.417C1249.04 330.417 1247.56 331.781 1246.48 333.51L1245.95 334.912C1245.38 336.408 1245.48 337.837 1246.25 339.197C1247.02 340.557 1248.08 341.708 1249.43 342.649C1250.3 343.19 1251.16 343.732 1252.03 344.273C1252.96 344.628 1253.9 344.982 1254.83 345.336C1257.45 346.328 1260.08 347.005 1262.72 347.365C1269.02 340.341 1275.41 333.352 1281.9 326.399C1288.45 319.258 1294.97 312.212 1301.46 305.258C1299.52 304.737 1297.58 304.215 1295.64 303.693C1293.95 303.055 1292.18 302.382 1290.31 301.673C1284.69 299.547 1279.39 296.895 1274.39 293.718C1269.16 290.025 1265.52 286.08 1263.48 281.883C1261.5 277.498 1261.51 272.688 1263.49 267.451C1265.9 261.093 1270.15 255.536 1276.23 250.782C1282.49 246.098 1289.83 242.25 1298.25 239.236C1306.66 236.221 1315.35 234.168 1324.32 233.075C1333.55 231.867 1342.33 231.558 1350.66 232.148C1359.18 232.81 1366.52 234.31 1372.69 236.648C1374.52 235.203 1376.93 232.801 1379.92 229.44C1383.16 225.964 1386.41 223.025 1389.67 220.625C1393.12 218.297 1395.86 217.838 1397.89 219.249C1398.57 219.72 1399.42 220.577 1400.45 221.821C1401.66 223.136 1402 224.226 1401.45 225.09C1401.31 225.464 1399.8 226.922 1396.91 229.464C1394.21 232.076 1391.38 234.747 1388.42 237.475C1385.72 240.088 1383.95 241.662 1383.1 242.197C1388.71 246.032 1392.64 250.622 1394.89 255.967C1397.14 261.312 1397.13 266.976 1394.86 272.961C1394.01 275.205 1392.88 277.343 1391.47 279.375C1390.93 280.239 1389.57 281.861 1387.38 284.242C1385.38 286.692 1383.61 287.412 1382.07 286.4C1380.41 285.13 1379.8 283.934 1380.22 282.812C1380.51 282.064 1381.01 281.293 1381.74 280.5C1382.47 279.707 1383.07 278.971 1383.54 278.294C1384.08 277.43 1384.49 276.624 1384.78 275.876C1385.25 275.199 1385.62 274.486 1385.91 273.738C1387.75 268.875 1387.59 264.216 1385.43 259.761C1383.34 255.119 1380.04 251.409 1375.53 248.632C1356.37 265.326 1337.63 282.607 1319.31 300.474C1322.45 301.234 1325.67 302.03 1329 302.86C1332.39 303.504 1335.67 304.428 1338.85 305.633C1350.82 310.169 1355.32 316.364 1352.34 324.219C1352.06 324.967 1351.68 325.68 1351.21 326.357C1351 326.918 1350.66 327.537 1350.19 328.214C1346.35 333.819 1340.87 338.693 1333.74 342.835C1326.68 346.79 1318.83 350.016 1310.18 352.515C1301.79 354.897 1293.37 356.518 1284.92 357.378C1276.72 358.123 1269.38 358.015 1262.9 357.057C1257.22 363.029 1251.27 369.973 1245.06 377.887C1238.86 385.801 1232.83 392.393 1226.98 397.663C1225.29 398.734 1223.98 399.092 1223.05 398.738ZM1293.88 293.083C1298.93 294.997 1303.9 296.559 1308.79 297.769C1317.83 288.578 1326.97 279.422 1336.2 270.301C1345.43 261.18 1354.87 252.352 1364.52 243.818C1357.95 241.97 1350.49 241.066 1342.13 241.108C1334.03 241.033 1325.76 241.964 1317.33 243.901C1308.9 245.838 1301.15 248.784 1294.09 252.739C1287.03 256.695 1281.51 261.661 1277.54 267.64C1277.07 268.318 1276.6 268.995 1276.12 269.672C1275.91 270.233 1275.7 270.794 1275.49 271.355C1273.15 277.527 1275.49 282.907 1282.52 287.496C1284.44 288.65 1286.3 289.674 1288.1 290.57C1290.08 291.537 1292.01 292.374 1293.88 293.083ZM1271.32 348.378C1275.93 348.628 1281.52 348.284 1288.08 347.347C1294.63 346.41 1301.4 344.912 1308.39 342.853C1315.37 340.793 1321.67 338.264 1327.3 335.263C1333 332.076 1337.26 328.451 1340.09 324.387C1340.23 324.013 1340.33 323.733 1340.41 323.546C1340.66 323.43 1340.83 323.278 1340.9 323.091C1341.47 321.595 1341.42 320.296 1340.77 319.193C1340.12 318.091 1339.12 317.069 1337.76 316.128C1336.97 315.4 1336.01 314.823 1334.89 314.398C1333.95 314.043 1333.02 313.689 1332.08 313.334C1328.72 312.059 1325.15 311.028 1321.39 310.243C1317.81 309.528 1314.45 308.791 1311.32 308.031C1304.53 314.656 1297.8 321.409 1291.13 328.291C1284.53 334.987 1277.92 341.682 1271.32 348.378Z" fill="#FFD500" fill-opacity="0.08"/>
<path d="M106.34 315.176C104.623 315.714 103.328 315.595 102.457 314.82C101.776 313.985 101.323 312.869 101.095 311.474C100.676 306.785 100.679 301.44 101.106 295.438C101.784 289.568 102.432 283.602 103.05 277.541C103.918 271.611 104.554 266.278 104.958 261.541C104.195 261.78 103.556 262.084 103.044 262.454C102.471 262.633 101.803 262.843 101.039 263.081C95.1224 264.933 90.3499 264.75 86.722 262.533C83.2252 260.064 80.8197 256.731 79.5055 252.531C79.2069 251.577 78.9381 250.718 78.6991 249.955C78.5913 248.941 78.5134 248.022 78.4653 247.199C78.4289 245.743 78.5652 243.5 78.8742 240.469C79.3142 237.188 80.5484 235.44 82.5766 235.224C84.5333 235.45 85.7208 236.231 86.1389 237.567C86.7363 239.476 86.5104 241.433 85.4613 243.438C84.6031 245.383 84.2818 247.369 84.4974 249.398L84.9454 250.829C85.4232 252.356 86.3841 253.417 87.828 254.013C89.2719 254.609 90.8171 254.859 92.4635 254.763C93.4776 254.655 94.4917 254.548 95.5058 254.44C96.4602 254.141 97.4145 253.842 98.3689 253.544C101.041 252.707 103.528 251.615 105.83 250.266C106.447 240.852 107.159 231.408 107.966 221.935C108.714 212.27 109.491 202.701 110.299 193.228C108.45 194.016 106.601 194.804 104.752 195.592C103.034 196.13 101.221 196.697 99.312 197.295C93.5858 199.087 87.7759 200.276 81.8823 200.863C75.4874 201.188 70.1897 200.331 65.9891 198.293C61.7288 196.063 58.7624 192.277 57.0898 186.932C55.0589 180.443 54.9665 173.451 56.8127 165.958C58.8498 158.404 62.247 150.845 67.0043 143.279C71.7616 135.712 77.3305 128.73 83.7109 122.333C90.2225 115.684 96.9373 110.02 103.855 105.341C110.964 100.601 117.668 97.2456 123.967 95.2744C124.515 93.0073 124.925 89.6306 125.198 85.1445C125.601 80.4077 126.345 76.0884 127.429 72.1865C128.704 68.2249 130.576 66.1719 133.046 66.0277C133.869 65.9797 135.068 66.1283 136.644 66.4737C138.409 66.7593 139.346 67.4091 139.454 68.4232C139.574 68.805 139.282 70.887 138.58 74.6695C138.068 78.3921 137.491 82.2401 136.849 86.2134C136.337 89.9361 135.915 92.2688 135.581 93.2115C142.357 92.7672 148.282 93.9519 153.354 96.7655C158.425 99.5791 161.917 104.04 163.829 110.148C164.545 112.438 164.976 114.818 165.12 117.288C165.228 118.302 165.157 120.42 164.908 123.641C164.85 126.803 163.902 128.462 162.064 128.618C159.977 128.642 158.753 128.082 158.395 126.937C158.156 126.173 158.078 125.255 158.161 124.181C158.244 123.107 158.262 122.159 158.214 121.335C158.106 120.321 157.932 119.433 157.694 118.669C157.645 117.846 157.502 117.052 157.263 116.289C155.71 111.326 152.708 107.76 148.257 105.591C143.746 103.23 138.86 102.349 133.598 102.948C128.836 127.91 124.766 153.074 121.388 178.441C124.323 177.103 127.353 175.736 130.478 174.338C133.544 172.75 136.699 171.449 139.944 170.433C152.16 166.61 159.522 168.707 162.031 176.723C162.27 177.487 162.413 178.28 162.461 179.104C162.64 179.676 162.754 180.374 162.802 181.197C163.246 187.974 161.943 195.193 158.892 202.854C155.781 210.324 151.596 217.711 146.338 225.015C141.21 232.068 135.587 238.543 129.469 244.439C123.482 250.085 117.644 254.532 111.954 257.78C111.17 265.988 110.78 275.122 110.784 285.18C110.788 295.237 110.118 304.144 108.773 311.9C108.106 313.785 107.295 314.877 106.34 315.176ZM96.8206 188.33C101.974 186.717 106.847 184.877 111.44 182.811C112.878 169.997 114.412 157.153 116.041 144.278C117.67 131.404 119.646 118.631 121.967 105.959C115.656 108.563 109.227 112.461 102.679 117.654C96.2625 122.596 90.3352 128.433 84.8974 135.164C79.4597 141.895 75.1854 148.996 72.0745 156.466C68.9636 163.936 67.69 171.25 68.2537 178.409C68.3018 179.232 68.3498 180.055 68.3979 180.878C68.5771 181.451 68.7563 182.024 68.9355 182.596C70.9067 188.895 76.074 191.679 84.4373 190.948C86.6564 190.672 88.7501 190.331 90.7186 189.925C92.8779 189.459 94.9119 188.927 96.8206 188.33ZM113.22 245.753C117.001 243.102 121.181 239.384 125.761 234.598C130.34 229.812 134.74 224.453 138.962 218.521C143.183 212.59 146.581 206.707 149.155 200.871C151.67 194.845 152.783 189.362 152.495 184.423C152.376 184.041 152.286 183.755 152.226 183.564C152.357 183.313 152.393 183.093 152.333 182.902C151.855 181.375 151.02 180.379 149.827 179.914C148.633 179.449 147.213 179.265 145.567 179.361C144.493 179.278 143.384 179.416 142.238 179.774C141.284 180.073 140.33 180.371 139.375 180.67C135.94 181.745 132.498 183.137 129.051 184.844C125.794 186.492 122.699 187.985 119.764 189.322C118.516 198.724 117.392 208.192 116.394 217.725C115.336 227.068 114.278 236.41 113.22 245.753Z" fill="#FFD500" fill-opacity="0.08"/>
<path d="M1269.37 259.207C1268.06 260.44 1266.85 260.899 1265.72 260.582C1264.75 260.128 1263.85 259.323 1263.04 258.167C1260.61 254.132 1258.28 249.322 1256.05 243.736C1254.09 238.159 1252.07 232.51 1249.98 226.787C1248.17 221.073 1246.41 215.997 1244.71 211.56C1244.12 212.108 1243.68 212.661 1243.38 213.218C1242.95 213.629 1242.44 214.109 1241.85 214.657C1237.34 218.907 1232.97 220.827 1228.73 220.416C1224.51 219.723 1220.89 217.774 1217.88 214.57C1217.19 213.842 1216.57 213.187 1216.02 212.604C1215.48 211.739 1215.01 210.947 1214.61 210.227C1213.94 208.934 1213.09 206.856 1212.04 203.995C1211 200.851 1211.35 198.739 1213.08 197.66C1214.94 197.008 1216.35 197.192 1217.31 198.212C1218.68 199.668 1219.33 201.527 1219.26 203.789C1219.34 205.913 1219.92 207.841 1221 209.571L1222.03 210.663C1223.12 211.828 1224.45 212.363 1226.01 212.269C1227.57 212.175 1229.07 211.725 1230.51 210.919C1231.37 210.379 1232.24 209.839 1233.1 209.3C1233.83 208.614 1234.56 207.929 1235.29 207.243C1237.33 205.324 1239.09 203.255 1240.57 201.036C1237.01 192.298 1233.53 183.491 1230.12 174.616C1226.57 165.596 1223.09 156.648 1219.68 147.773C1218.36 149.289 1217.04 150.806 1215.72 152.322C1214.41 153.556 1213.03 154.859 1211.57 156.23C1207.2 160.342 1202.5 163.95 1197.45 167.052C1191.84 170.136 1186.7 171.679 1182.03 171.68C1177.22 171.535 1172.9 169.424 1169.06 165.346C1164.4 160.395 1161.26 154.146 1159.65 146.598C1158.19 138.914 1157.94 130.63 1158.92 121.745C1159.89 112.861 1161.85 104.148 1164.8 95.6065C1167.75 86.7821 1171.32 78.7543 1175.5 71.5231C1179.83 64.1549 1184.39 58.2087 1189.2 53.6847C1188.7 51.4059 1187.59 48.1892 1185.88 44.0344C1184.18 39.5969 1182.96 35.3863 1182.23 31.4027C1181.65 27.282 1182.43 24.6176 1184.59 23.4093C1185.31 23.0066 1186.46 22.6166 1188.02 22.2395C1189.74 21.7252 1190.86 21.9007 1191.4 22.7659C1191.68 23.0572 1192.33 25.0575 1193.35 28.7669C1194.51 32.3392 1195.67 36.0529 1196.83 39.9079C1197.99 43.4802 1198.63 45.7633 1198.74 46.757C1204.65 43.398 1210.49 41.8765 1216.29 42.1928C1222.08 42.509 1227.17 44.9971 1231.55 49.657C1233.2 51.4044 1234.62 53.3576 1235.83 55.5163C1236.37 56.3815 1237.23 58.3175 1238.42 61.3244C1239.74 64.1942 1239.62 66.1004 1238.03 67.043C1236.16 67.977 1234.82 68.0072 1234 67.1335C1233.45 66.551 1232.98 65.7586 1232.58 64.7563C1232.19 63.754 1231.79 62.8931 1231.39 62.1735C1230.85 61.3083 1230.3 60.5844 1229.75 60.0019C1229.35 59.2824 1228.88 58.6313 1228.33 58.0488C1224.76 54.2627 1220.51 52.3656 1215.55 52.3577C1210.47 52.2041 1205.68 53.5455 1201.21 56.3818C1207.83 80.917 1215.16 105.332 1223.2 129.627C1225.25 127.143 1227.38 124.589 1229.58 121.967C1231.65 119.2 1233.92 116.651 1236.39 114.321C1245.71 105.547 1253.25 104.218 1259.01 110.334C1259.56 110.916 1260.03 111.567 1260.44 112.287C1260.85 112.724 1261.25 113.302 1261.66 114.022C1265.02 119.924 1267 126.987 1267.6 135.212C1268.06 143.29 1267.52 151.763 1265.98 160.63C1264.45 169.215 1262.22 177.495 1259.29 185.471C1256.37 193.165 1253.06 199.715 1249.36 205.121C1252.24 212.848 1255.88 221.235 1260.27 230.281C1264.67 239.327 1267.95 247.633 1270.13 255.197C1270.35 257.185 1270.1 258.521 1269.37 259.207ZM1205.41 149.252C1209.35 145.551 1212.93 141.768 1216.16 137.904C1211.85 125.748 1207.62 113.523 1203.47 101.23C1199.31 88.9369 1195.51 76.5837 1192.06 64.1704C1187.52 69.2684 1183.44 75.5829 1179.82 83.1138C1176.21 90.362 1173.42 98.2012 1171.47 106.631C1169.52 115.062 1168.77 123.316 1169.24 131.395C1169.7 139.474 1171.75 146.61 1175.38 152.803C1175.79 153.523 1176.19 154.242 1176.59 154.962C1177 155.399 1177.41 155.836 1177.83 156.272C1182.35 161.078 1188.21 161.326 1195.42 157.015C1197.29 155.799 1199.03 154.578 1200.62 153.352C1202.36 151.99 1203.96 150.623 1205.41 149.252ZM1245.24 193.749C1247.49 189.713 1249.63 184.543 1251.65 178.237C1253.68 171.932 1255.3 165.189 1256.51 158.01C1257.72 150.831 1258.2 144.054 1257.97 137.68C1257.6 131.161 1256.21 125.742 1253.79 121.425C1253.52 121.133 1253.31 120.915 1253.18 120.769C1253.19 120.487 1253.12 120.272 1252.98 120.127C1251.89 118.962 1250.7 118.431 1249.42 118.534C1248.15 118.637 1246.79 119.091 1245.35 119.896C1244.35 120.291 1243.41 120.899 1242.54 121.722C1241.81 122.407 1241.08 123.093 1240.35 123.778C1237.73 126.246 1235.24 129 1232.89 132.042C1230.68 134.946 1228.54 137.641 1226.49 140.126C1229.47 149.129 1232.59 158.137 1235.86 167.149C1238.99 176.016 1242.12 184.882 1245.24 193.749Z" fill="#FFD500" fill-opacity="0.08"/>
<path d="M1186.41 580.344C1184.93 580.096 1184.01 579.519 1183.66 578.615C1183.47 577.738 1183.55 576.738 1183.91 575.615C1185.36 571.972 1187.38 568.001 1189.96 563.701C1192.68 559.594 1195.41 555.404 1198.15 551.132C1201.03 547.052 1203.51 543.328 1205.6 539.96C1204.94 539.849 1204.35 539.835 1203.83 539.917C1203.34 539.834 1202.76 539.738 1202.11 539.628C1197.01 538.774 1193.53 536.839 1191.67 533.823C1190 530.671 1189.47 527.287 1190.08 523.67C1190.22 522.848 1190.34 522.109 1190.45 521.451C1190.75 520.657 1191.04 519.945 1191.31 519.315C1191.84 518.219 1192.78 516.604 1194.15 514.468C1195.72 512.195 1197.29 511.361 1198.88 511.965C1200.25 512.87 1200.84 513.898 1200.65 515.049C1200.37 516.693 1199.47 518.062 1197.93 519.156C1196.56 520.279 1195.57 521.634 1194.97 523.223L1194.76 524.455C1194.54 525.77 1194.86 526.921 1195.7 527.909C1196.55 528.896 1197.61 529.664 1198.87 530.213C1199.66 530.515 1200.46 530.817 1201.25 531.119C1202.07 531.257 1202.89 531.395 1203.72 531.533C1206.02 531.918 1208.28 532.044 1210.5 531.909C1214.5 525.144 1218.59 518.394 1222.76 511.657C1226.96 504.756 1231.15 497.937 1235.32 491.201C1233.64 491.09 1231.97 490.979 1230.3 490.868C1228.82 490.62 1227.26 490.358 1225.62 490.082C1220.69 489.256 1215.92 487.95 1211.32 486.165C1206.44 483.996 1202.83 481.363 1200.48 478.264C1198.15 475.002 1197.37 471.069 1198.14 466.467C1199.08 460.878 1201.65 455.647 1205.84 450.773C1210.2 445.928 1215.58 441.589 1221.97 437.759C1228.35 433.929 1235.12 430.839 1242.28 428.489C1249.62 426.002 1256.75 424.323 1263.65 423.453C1270.72 422.61 1276.97 422.643 1282.39 423.552C1283.66 422.073 1285.23 419.718 1287.13 416.487C1289.21 413.118 1291.39 410.189 1293.67 407.697C1296.11 405.233 1298.28 404.413 1300.17 405.237C1300.8 405.512 1301.63 406.074 1302.67 406.924C1303.88 407.802 1304.33 408.638 1304.03 409.433C1303.97 409.761 1302.97 411.199 1301.02 413.745C1299.24 416.319 1297.36 418.962 1295.38 421.673C1293.6 424.247 1292.41 425.821 1291.8 426.396C1297.01 428.62 1300.96 431.733 1303.67 435.736C1306.38 439.739 1307.3 444.37 1306.41 449.63C1306.08 451.603 1305.51 453.534 1304.68 455.424C1304.38 456.218 1303.53 457.766 1302.13 460.066C1300.9 462.394 1299.57 463.269 1298.14 462.693C1296.58 461.924 1295.88 461.047 1296.05 460.06C1296.16 459.403 1296.45 458.691 1296.91 457.924C1297.38 457.157 1297.75 456.459 1298.02 455.829C1298.33 455.035 1298.53 454.309 1298.64 453.651C1298.92 453.021 1299.11 452.377 1299.22 451.72C1299.94 447.446 1299.05 443.664 1296.56 440.374C1294.1 436.919 1290.8 434.423 1286.66 432.885C1273.71 449.642 1261.2 466.811 1249.13 484.391C1251.82 484.503 1254.58 484.628 1257.43 484.768C1260.31 484.743 1263.15 484.965 1265.94 485.433C1276.46 487.196 1281.14 491.529 1279.99 498.433C1279.88 499.091 1279.68 499.734 1279.41 500.364C1279.33 500.858 1279.15 501.419 1278.87 502.049C1276.65 507.253 1272.96 512.127 1267.8 516.671C1262.68 521.05 1256.78 524.963 1250.12 528.409C1243.65 531.719 1237.03 534.412 1230.26 536.488C1223.68 538.428 1217.67 539.532 1212.22 539.801C1208.54 545.607 1204.81 552.248 1201.02 559.725C1197.23 567.201 1193.38 573.568 1189.45 578.826C1188.25 579.975 1187.23 580.481 1186.41 580.344ZM1227.15 482.48C1231.58 483.224 1235.9 483.694 1240.09 483.889C1245.99 474.907 1251.97 465.939 1258.03 456.985C1264.1 448.031 1270.38 439.282 1276.88 430.739C1271.21 430.296 1264.96 430.77 1258.14 432.161C1251.51 433.415 1244.9 435.519 1238.32 438.473C1231.74 441.426 1225.89 445.092 1220.76 449.472C1215.64 453.851 1211.93 458.807 1209.65 464.34C1209.38 464.97 1209.1 465.6 1208.83 466.23C1208.75 466.723 1208.66 467.216 1208.58 467.709C1207.67 473.133 1210.46 477.15 1216.95 479.759C1218.71 480.39 1220.39 480.926 1222.01 481.366C1223.79 481.833 1225.5 482.205 1227.15 482.48ZM1217.69 531.34C1221.5 530.795 1226.01 529.607 1231.21 527.776C1236.42 525.945 1241.71 523.621 1247.09 520.803C1252.46 517.986 1257.2 514.894 1261.31 511.527C1265.45 507.996 1268.35 504.341 1270 500.561C1270.05 500.233 1270.09 499.986 1270.12 499.822C1270.31 499.685 1270.42 499.534 1270.45 499.37C1270.67 498.055 1270.42 497 1269.71 496.205C1269 495.409 1268.01 494.737 1266.75 494.188C1265.99 493.722 1265.11 493.406 1264.13 493.24C1263.3 493.103 1262.48 492.965 1261.66 492.827C1258.7 492.331 1255.62 492.068 1252.41 492.038C1249.37 492.035 1246.51 491.978 1243.82 491.866C1239.35 498.383 1234.95 504.996 1230.61 511.705C1226.3 518.25 1222 524.795 1217.69 531.34Z" fill="#FFD500" fill-opacity="0.08"/>
<path d="M190.13 429.286C188.985 429.645 188.122 429.566 187.541 429.049C187.088 428.492 186.785 427.749 186.633 426.818C186.354 423.692 186.356 420.129 186.641 416.128C187.093 412.214 187.525 408.237 187.936 404.196C188.516 400.243 188.94 396.687 189.209 393.53C188.7 393.689 188.274 393.892 187.932 394.139C187.551 394.258 187.105 394.397 186.596 394.557C182.652 395.791 179.47 395.669 177.051 394.191C174.72 392.545 173.116 390.323 172.24 387.523C172.041 386.887 171.862 386.315 171.703 385.806C171.631 385.129 171.579 384.517 171.547 383.968C171.523 382.998 171.613 381.502 171.819 379.482C172.113 377.295 172.936 376.129 174.288 375.985C175.592 376.136 176.384 376.656 176.663 377.547C177.061 378.82 176.91 380.124 176.211 381.461C175.639 382.758 175.424 384.082 175.568 385.434L175.867 386.388C176.185 387.406 176.826 388.114 177.789 388.511C178.751 388.909 179.781 389.075 180.879 389.011C181.555 388.939 182.231 388.867 182.907 388.796C183.543 388.596 184.18 388.397 184.816 388.198C186.597 387.641 188.255 386.912 189.79 386.013C190.201 379.737 190.676 373.441 191.214 367.125C191.713 360.682 192.231 354.303 192.769 347.987C191.536 348.513 190.304 349.038 189.071 349.564C187.926 349.922 186.717 350.301 185.445 350.699C181.627 351.894 177.754 352.687 173.825 353.078C169.562 353.294 166.03 352.723 163.229 351.364C160.389 349.878 158.412 347.353 157.297 343.791C155.943 339.464 155.881 334.803 157.112 329.807C158.47 324.772 160.735 319.732 163.906 314.688C167.078 309.644 170.79 304.989 175.044 300.724C179.385 296.292 183.862 292.516 188.474 289.396C193.213 286.236 197.682 283.999 201.881 282.685C202.246 281.174 202.52 278.923 202.702 275.932C202.971 272.774 203.467 269.895 204.189 267.293C205.039 264.652 206.288 263.284 207.934 263.188C208.483 263.155 209.282 263.255 210.332 263.485C211.51 263.675 212.134 264.108 212.206 264.785C212.286 265.039 212.091 266.427 211.623 268.949C211.282 271.43 210.897 273.996 210.469 276.645C210.128 279.126 209.846 280.682 209.624 281.31C214.142 281.014 218.091 281.804 221.472 283.679C224.854 285.555 227.181 288.529 228.456 292.601C228.934 294.128 229.221 295.715 229.317 297.361C229.389 298.037 229.341 299.449 229.175 301.597C229.136 303.704 228.504 304.81 227.28 304.914C225.888 304.931 225.072 304.557 224.833 303.794C224.674 303.285 224.622 302.672 224.677 301.956C224.733 301.24 224.744 300.608 224.712 300.059C224.641 299.383 224.525 298.791 224.366 298.282C224.334 297.733 224.238 297.204 224.079 296.695C223.043 293.387 221.042 291.009 218.074 289.563C215.067 287.989 211.81 287.402 208.302 287.801C205.127 304.442 202.414 321.218 200.162 338.129C202.119 337.238 204.139 336.326 206.222 335.395C208.266 334.336 210.369 333.468 212.532 332.791C220.676 330.242 225.585 331.64 227.257 336.985C227.416 337.494 227.512 338.023 227.544 338.571C227.664 338.953 227.739 339.418 227.771 339.967C228.068 344.485 227.199 349.298 225.164 354.405C223.091 359.385 220.301 364.31 216.795 369.179C213.377 373.881 209.628 378.198 205.549 382.129C201.558 385.893 197.666 388.857 193.873 391.022C193.35 396.495 193.09 402.584 193.093 409.289C193.096 415.994 192.649 421.932 191.752 427.102C191.307 428.359 190.767 429.087 190.13 429.286ZM183.784 344.722C187.219 343.647 190.468 342.421 193.53 341.043C194.489 332.5 195.511 323.937 196.597 315.355C197.684 306.772 199 298.256 200.548 289.809C196.341 291.544 192.055 294.143 187.689 297.605C183.412 300.9 179.46 304.791 175.835 309.278C172.21 313.766 169.36 318.5 167.286 323.48C165.212 328.46 164.363 333.336 164.739 338.108C164.771 338.657 164.803 339.206 164.835 339.755C164.955 340.136 165.074 340.518 165.194 340.9C166.508 345.099 169.953 346.955 175.528 346.467C177.008 346.284 178.403 346.057 179.716 345.786C181.155 345.475 182.511 345.12 183.784 344.722ZM194.716 383.004C197.237 381.237 200.024 378.758 203.077 375.568C206.13 372.377 209.064 368.804 211.878 364.85C214.692 360.896 216.957 356.973 218.673 353.083C220.35 349.066 221.092 345.411 220.9 342.118C220.82 341.863 220.761 341.672 220.721 341.545C220.808 341.378 220.832 341.231 220.792 341.104C220.474 340.086 219.917 339.422 219.121 339.112C218.325 338.802 217.379 338.679 216.281 338.743C215.565 338.688 214.826 338.78 214.062 339.018C213.426 339.218 212.79 339.417 212.154 339.616C209.863 340.333 207.569 341.26 205.27 342.399C203.1 343.497 201.036 344.492 199.08 345.384C198.247 351.652 197.498 357.964 196.832 364.319C196.127 370.548 195.422 376.776 194.716 383.004Z" fill="#FFD500" fill-opacity="0.08"/>
<path d="M110.186 624.665C108.468 625.203 107.173 625.084 106.302 624.309C105.622 623.474 105.168 622.358 104.94 620.963C104.521 616.274 104.525 610.929 104.952 604.927C105.629 599.057 106.277 593.091 106.895 587.03C107.764 581.1 108.4 575.766 108.803 571.03C108.04 571.269 107.402 571.573 106.889 571.943C106.316 572.122 105.648 572.331 104.885 572.57C98.9676 574.422 94.1951 574.239 90.5672 572.022C87.0704 569.553 84.6649 566.22 83.3507 562.02C83.0521 561.066 82.7833 560.207 82.5443 559.444C82.4365 558.43 82.3586 557.511 82.3105 556.688C82.2741 555.232 82.4104 552.989 82.7194 549.958C83.1594 546.677 84.3936 544.929 86.4218 544.713C88.3785 544.939 89.566 545.72 89.9841 547.056C90.5815 548.965 90.3556 550.922 89.3065 552.926C88.4483 554.872 88.127 556.858 88.3426 558.886L88.7906 560.318C89.2684 561.845 90.2293 562.906 91.6732 563.502C93.1171 564.098 94.6623 564.348 96.3087 564.252C97.3228 564.144 98.3369 564.036 99.351 563.929C100.305 563.63 101.26 563.331 102.214 563.033C104.886 562.196 107.373 561.104 109.676 559.755C110.292 550.341 111.004 540.897 111.811 531.423C112.559 521.759 113.337 512.19 114.144 502.717C112.295 503.505 110.446 504.293 108.597 505.081C106.879 505.619 105.066 506.186 103.157 506.784C97.431 508.576 91.6211 509.765 85.7275 510.352C79.3326 510.677 74.0349 509.82 69.8343 507.782C65.574 505.552 62.6076 501.765 60.935 496.421C58.9041 489.931 58.8117 482.94 60.6579 475.447C62.695 467.893 66.0922 460.334 70.8495 452.767C75.6068 445.201 81.1757 438.219 87.5561 431.822C94.0677 425.173 100.783 419.509 107.701 414.829C114.809 410.09 121.513 406.735 127.812 404.763C128.36 402.496 128.77 399.12 129.043 394.633C129.446 389.897 130.19 385.577 131.274 381.675C132.549 377.714 134.422 375.661 136.891 375.517C137.715 375.469 138.914 375.617 140.489 375.963C142.255 376.248 143.191 376.898 143.299 377.912C143.419 378.294 143.127 380.376 142.425 384.158C141.913 387.881 141.336 391.729 140.694 395.702C140.182 399.425 139.76 401.758 139.426 402.7C146.203 402.256 152.127 403.441 157.199 406.254C162.271 409.068 165.762 413.529 167.674 419.637C168.391 421.927 168.821 424.307 168.965 426.777C169.073 427.791 169.002 429.909 168.753 433.13C168.695 436.292 167.747 437.951 165.91 438.107C163.822 438.131 162.599 437.571 162.24 436.426C162.001 435.662 161.923 434.744 162.006 433.67C162.089 432.596 162.107 431.648 162.059 430.824C161.951 429.81 161.778 428.921 161.539 428.158C161.491 427.335 161.347 426.541 161.108 425.778C159.555 420.815 156.553 417.249 152.102 415.08C147.591 412.719 142.705 411.838 137.444 412.437C132.681 437.399 128.612 462.563 125.234 487.929C128.168 486.592 131.198 485.225 134.323 483.827C137.389 482.239 140.544 480.937 143.789 479.922C156.005 476.099 163.367 478.196 165.876 486.212C166.115 486.976 166.258 487.769 166.306 488.592C166.486 489.165 166.599 489.863 166.647 490.686C167.092 497.463 165.788 504.682 162.737 512.343C159.626 519.813 155.441 527.2 150.183 534.504C145.055 541.557 139.433 548.032 133.314 553.928C127.327 559.574 121.489 564.021 115.799 567.269C115.015 575.477 114.625 584.611 114.629 594.669C114.634 604.726 113.963 613.633 112.618 621.389C111.951 623.274 111.14 624.366 110.186 624.665ZM100.666 497.818C105.819 496.206 110.692 494.366 115.285 492.3C116.723 479.486 118.257 466.641 119.886 453.767C121.516 440.893 123.491 428.12 125.812 415.448C119.502 418.052 113.072 421.95 106.524 427.143C100.108 432.085 94.1804 437.922 88.7426 444.653C83.3049 451.384 79.0306 458.485 75.9197 465.955C72.8088 473.425 71.5352 480.739 72.0989 487.898C72.147 488.721 72.195 489.544 72.2431 490.367C72.4223 490.94 72.6015 491.513 72.7807 492.085C74.7519 498.384 79.9192 501.168 88.2825 500.436C90.5016 500.161 92.5953 499.82 94.5638 499.414C96.7231 498.948 98.7571 498.416 100.666 497.818ZM117.065 555.242C120.846 552.591 125.026 548.873 129.606 544.087C134.185 539.301 138.586 533.942 142.807 528.01C147.028 522.079 150.426 516.195 153 510.36C155.515 504.334 156.629 498.851 156.34 493.912C156.221 493.53 156.131 493.244 156.071 493.053C156.203 492.802 156.238 492.582 156.179 492.391C155.701 490.864 154.865 489.868 153.672 489.403C152.478 488.938 151.059 488.754 149.412 488.85C148.338 488.767 147.229 488.905 146.084 489.263C145.129 489.562 144.175 489.86 143.221 490.159C139.785 491.234 136.343 492.626 132.896 494.333C129.64 495.981 126.544 497.474 123.61 498.811C122.361 508.213 121.237 517.681 120.239 527.214C119.181 536.557 118.123 545.899 117.065 555.242Z" fill="#FFD500" fill-opacity="0.08"/>
<path d="M336.394 271.967C334.676 272.504 333.381 272.385 332.51 271.61C331.83 270.775 331.376 269.66 331.148 268.264C330.729 263.575 330.733 258.23 331.16 252.229C331.837 246.359 332.485 240.393 333.103 234.332C333.971 228.402 334.608 223.068 335.011 218.331C334.248 218.57 333.61 218.875 333.097 219.245C332.524 219.424 331.856 219.633 331.093 219.872C325.176 221.724 320.403 221.541 316.775 219.323C313.278 216.855 310.873 213.521 309.559 209.322C309.26 208.368 308.991 207.509 308.752 206.745C308.645 205.731 308.567 204.813 308.519 203.989C308.482 202.534 308.618 200.291 308.927 197.26C309.367 193.979 310.602 192.23 312.63 192.015C314.587 192.241 315.774 193.022 316.192 194.358C316.789 196.267 316.564 198.223 315.514 200.228C314.656 202.173 314.335 204.16 314.551 206.188L314.999 207.62C315.476 209.147 316.437 210.208 317.881 210.804C319.325 211.4 320.87 211.65 322.517 211.554C323.531 211.446 324.545 211.338 325.559 211.23C326.513 210.932 327.468 210.633 328.422 210.334C331.094 209.498 333.581 208.405 335.884 207.056C336.5 197.642 337.212 188.199 338.019 178.725C338.767 169.061 339.545 159.492 340.352 150.018C338.503 150.806 336.654 151.595 334.805 152.383C333.087 152.92 331.274 153.488 329.365 154.085C323.639 155.877 317.829 157.067 311.935 157.654C305.541 157.979 300.243 157.122 296.042 155.083C291.782 152.854 288.816 149.067 287.143 143.723C285.112 137.233 285.02 130.242 286.866 122.748C288.903 115.195 292.3 107.635 297.057 100.069C301.815 92.5029 307.384 85.5209 313.764 79.1233C320.276 72.475 326.99 66.811 333.909 62.1312C341.017 57.3916 347.721 54.0362 354.02 52.065C354.568 49.7979 354.978 46.4212 355.251 41.9351C355.654 37.1983 356.398 32.8789 357.482 28.9771C358.757 25.0154 360.63 22.9625 363.099 22.8183C363.923 22.7703 365.122 22.9189 366.697 23.2643C368.463 23.5499 369.399 24.1997 369.507 25.2138C369.627 25.5956 369.335 27.6776 368.633 31.46C368.121 35.1827 367.544 39.0307 366.902 43.004C366.39 46.7267 365.968 49.0594 365.634 50.0021C372.411 49.5578 378.335 50.7425 383.407 53.5561C388.479 56.3697 391.97 60.8305 393.882 66.9384C394.599 69.2288 395.029 71.6089 395.173 74.0785C395.281 75.0926 395.21 77.2104 394.961 80.4319C394.903 83.5936 393.955 85.2524 392.118 85.4083C390.03 85.433 388.807 84.8727 388.448 83.7275C388.209 82.964 388.131 82.0454 388.214 80.9716C388.297 79.8977 388.315 78.9492 388.267 78.126C388.159 77.1119 387.986 76.2231 387.747 75.4596C387.699 74.6364 387.555 73.8431 387.316 73.0796C385.763 68.1169 382.761 64.5508 378.31 62.3812C373.799 60.0207 368.913 59.1399 363.652 59.7386C358.889 84.7002 354.819 109.864 351.442 135.231C354.376 133.894 357.406 132.526 360.531 131.129C363.597 129.541 366.752 128.239 369.997 127.224C382.213 123.401 389.575 125.497 392.084 133.514C392.323 134.278 392.466 135.071 392.514 135.894C392.694 136.467 392.807 137.165 392.855 137.988C393.3 144.765 391.996 151.983 388.945 159.644C385.834 167.114 381.649 174.501 376.391 181.805C371.263 188.859 365.641 195.334 359.522 201.23C353.535 206.876 347.697 211.323 342.007 214.57C341.223 222.779 340.833 231.912 340.837 241.97C340.842 252.028 340.171 260.935 338.826 268.691C338.159 270.576 337.348 271.668 336.394 271.967ZM326.874 145.12C332.027 143.507 336.9 141.668 341.493 139.602C342.931 126.787 344.465 113.943 346.094 101.069C347.724 88.1947 349.699 75.4217 352.02 62.75C345.71 65.3536 339.28 69.2517 332.732 74.4444C326.316 79.3865 320.388 85.2232 314.951 91.9546C309.513 98.6859 305.239 105.787 302.128 113.257C299.017 120.727 297.743 128.041 298.307 135.199C298.355 136.023 298.403 136.846 298.451 137.669C298.63 138.242 298.809 138.814 298.989 139.387C300.96 145.686 306.127 148.469 314.491 147.738C316.71 147.463 318.803 147.122 320.772 146.715C322.931 146.249 324.965 145.717 326.874 145.12ZM343.273 202.543C347.054 199.893 351.234 196.175 355.814 191.389C360.393 186.602 364.794 181.243 369.015 175.312C373.236 169.381 376.634 163.497 379.208 157.662C381.723 151.636 382.837 146.153 382.548 141.214C382.429 140.832 382.339 140.545 382.279 140.355C382.411 140.104 382.446 139.883 382.387 139.692C381.909 138.165 381.073 137.17 379.88 136.705C378.686 136.24 377.267 136.056 375.62 136.152C374.546 136.069 373.437 136.206 372.292 136.565C371.337 136.863 370.383 137.162 369.429 137.461C365.993 138.536 362.551 139.927 359.104 141.635C355.847 143.283 352.752 144.775 349.818 146.113C348.569 155.515 347.445 164.983 346.447 174.516C345.389 183.858 344.331 193.201 343.273 202.543Z" fill="#FFD500" fill-opacity="0.08"/>
<path d="M385.4 565.2C383.4 565.2 380.6 564.4 377 562.8C373.4 561.6 371.6 559.6 371.6 556.8C371.6 555.2 373.4 550 377 541.2C380.6 532.4 384.8 522.2 389.6 510.6C394.8 499 399.6 488.2 404 478.2C408.8 467.8 412.2 460.6 414.2 456.6C378.6 455 343 449.8 307.4 441C304.2 442.6 300.6 444.4 296.6 446.4C292.6 448 288.6 448.8 284.6 448.8C281.4 448.8 276.6 447.6 270.2 445.2C264.2 442.8 261.2 439.6 261.2 435.6C261.2 430 264.4 425.6 270.8 422.4C277.2 419.2 282.4 417.6 286.4 417.6C287.6 417.6 288.8 417.6 290 417.6C291.2 417.6 292.4 417.8 293.6 418.2C329.2 389.4 365.4 361.4 402.2 334.2C439.4 307 475.6 278.8 510.8 249.6C518.4 243.2 525.6 236.4 532.4 229.2C539.2 222 546.4 215.4 554 209.4C555.6 208.6 557 208.2 558.2 208.2C561 208.2 564 209.6 567.2 212.4C570.8 214.8 572.6 217.6 572.6 220.8C572.6 224.8 569.4 229.8 563 235.8C557 241.8 552.6 246.6 549.8 250.2C547 253 544.2 256.8 541.4 261.6C538.6 266 535.6 270.8 532.4 276C529.6 281.2 526.8 286.2 524 291C521.2 295.8 518.8 300 516.8 303.6C504.4 325.2 492.6 347.2 481.4 369.6C470.2 391.6 459 414.2 447.8 437.4C457 437.4 467.4 436.6 479 435C490.6 433.4 500.6 430.4 509 426C517.8 421.2 522.2 414.6 522.2 406.2C522.2 405.4 522 404.8 521.6 404.4C521.6 403.6 521.6 403 521.6 402.6C521.6 395.4 525.2 391.8 532.4 391.8C536.8 391.8 539.4 393.4 540.2 396.6C541 399.8 541.4 403 541.4 406.2C541.4 418.2 537.6 427.6 530 434.4C522.4 441.2 513 446.4 501.8 450C490.6 453.2 479.2 455.4 467.6 456.6C456.4 457.4 446.8 457.8 438.8 457.8C433.6 469 428.2 480.6 422.6 492.6C417.4 504.2 412.6 516 408.2 528C406.6 532.4 405 537.6 403.4 543.6C401.8 549.2 400.2 553.8 398.6 557.4C397.4 560.2 395.6 562.2 393.2 563.4C390.8 564.6 388.2 565.2 385.4 565.2ZM422 437.4C434.8 409.8 448.4 382.4 462.8 355.2C477.2 328 493 301.8 510.2 276.6C479.8 302.2 448 326.4 414.8 349.2C382 371.6 350 396.2 318.8 423C335.6 427 352.6 430.4 369.8 433.2C387 435.6 404.4 437 422 437.4ZM1075.83 612C1073.83 612 1072.23 611.8 1071.03 611.4C1059.03 606.6 1051.03 600.4 1047.03 592.8C1043.43 585.2 1041.63 575.8 1041.63 564.6C1041.63 557.8 1042.03 551 1042.83 544.2C1043.63 537.4 1044.63 530.6 1045.83 523.8C1054.63 471.4 1070.23 420.2 1092.63 370.2C1115.03 320.2 1141.83 272.8 1173.03 228C1175.03 225.2 1176.03 222.2 1176.03 219C1176.03 216.2 1174.83 214.2 1172.43 213C1170.43 211.8 1167.83 211.2 1164.63 211.2C1157.83 211.2 1151.03 213.2 1144.23 217.2C1137.83 221.2 1132.43 225.2 1128.03 229.2C1108.03 246.4 1088.23 266.6 1068.63 289.8C1049.43 312.6 1031.83 334 1015.83 354C1002.23 372 988.831 390.2 975.631 408.6C962.431 427 949.631 445.6 937.231 464.4C932.031 472.8 926.631 481.8 921.031 491.4C915.831 500.6 910.431 509.2 904.831 517.2C902.831 521.2 899.631 523.2 895.231 523.2C892.431 523.2 890.031 522.4 888.031 520.8C886.031 518.8 885.031 516.6 885.031 514.2C885.031 513.4 885.031 512.8 885.031 512.4C885.431 512 885.631 511.6 885.631 511.2C899.231 472 912.431 432.8 925.231 393.6C938.431 354.4 951.231 315.2 963.631 276C964.831 272.4 965.831 268.8 966.631 265.2C967.431 261.6 967.831 258 967.831 254.4C967.831 250 966.831 246 964.831 242.4C963.231 238.8 959.631 237 954.031 237C949.231 237 944.431 238.2 939.631 240.6C935.231 243 931.231 245.4 927.631 247.8C921.231 252.2 915.031 257.2 909.031 262.8C903.031 268 897.231 273.2 891.631 278.4C869.631 299.6 848.631 322 828.631 345.6C809.031 368.8 791.631 393.2 776.431 418.8C762.031 444 747.431 469.2 732.631 494.4C718.231 519.6 704.431 545.2 691.231 571.2C688.431 572.4 685.431 573 682.231 573C680.231 573 677.831 572.6 675.031 571.8C672.231 571 670.831 569.2 670.831 566.4V564C680.431 539.2 691.631 514.8 704.431 490.8C717.631 466.4 730.431 442.4 742.831 418.8C748.031 408.8 754.831 396.2 763.231 381C772.031 365.4 781.231 348.4 790.831 330C800.831 311.6 810.031 293.2 818.431 274.8C827.231 256.4 834.231 239.4 839.431 223.8C845.031 207.8 847.831 194.6 847.831 184.2C847.831 172.2 844.031 163.6 836.431 158.4C828.831 153.2 818.431 150.6 805.231 150.6C792.831 150.6 779.031 152.4 763.831 156C749.031 159.6 734.431 164.2 720.031 169.8C706.031 175 693.631 180.4 682.831 186C668.031 193.2 652.431 203 636.031 215.4C619.631 227.4 604.231 241 589.831 256.2C575.431 271 563.631 286.6 554.431 303C545.631 319.4 541.231 335.6 541.231 351.6C541.231 363.6 544.831 373.4 552.031 381C559.231 388.6 570.231 392.4 585.031 392.4C594.631 392.4 602.431 390.8 608.431 387.6C614.831 384.4 619.431 382.8 622.231 382.8C625.031 382.8 627.431 383.8 629.431 385.8C631.431 387.8 632.431 390 632.431 392.4C632.431 396 629.231 399.2 622.831 402C616.431 404.4 609.431 406.2 601.831 407.4C594.231 408.6 588.831 409.2 585.631 409.2C564.831 409.2 549.231 403.8 538.831 393C528.431 381.8 523.231 367.6 523.231 350.4C523.231 338.8 525.231 327 529.231 315C533.231 303 538.631 292 545.431 282C555.031 268 567.031 254 581.431 240C596.231 226 612.031 213 628.831 201C646.031 189 662.431 179 678.031 171C695.631 161.8 716.231 153.8 739.831 147C763.831 140.2 786.231 136.8 807.031 136.8C823.831 136.8 838.031 140.2 849.631 147C861.631 153.4 867.631 164.8 867.631 181.2C867.631 191.6 865.231 204.2 860.431 219C856.031 233.4 850.231 248.6 843.031 264.6C836.231 280.2 829.231 295.2 822.031 309.6C815.231 323.6 809.231 335.4 804.031 345L807.031 346.2C811.831 340.2 818.431 332 826.831 321.6C835.631 311.2 845.431 300 856.231 288C867.431 276 879.031 264.8 891.031 254.4C903.031 243.6 914.631 234.8 925.831 228C937.431 221.2 947.831 217.8 957.031 217.8C968.631 217.8 976.431 222 980.431 230.4C984.831 238.8 987.031 247.2 987.031 255.6C987.031 259.6 986.631 263.6 985.831 267.6C985.031 271.6 984.231 275.8 983.431 280.2C981.831 288.2 979.431 296.2 976.231 304.2C973.431 312.2 970.831 320.2 968.431 328.2L936.031 426L939.031 427.2C953.831 405.2 970.831 381.4 990.031 355.8C1009.63 330.2 1030.23 305.2 1051.83 280.8C1073.43 256.4 1094.23 235.4 1114.23 217.8C1121.43 211 1129.83 205 1139.43 199.8C1149.43 194.2 1160.03 191.4 1171.23 191.4C1179.23 191.4 1185.83 193.4 1191.03 197.4C1196.23 201 1198.83 206.4 1198.83 213.6C1198.83 217.6 1197.83 221.6 1195.83 225.6C1194.23 229.6 1192.23 233.4 1189.83 237C1171.03 264.6 1153.23 294.8 1136.43 327.6C1120.03 360 1105.63 393.2 1093.23 427.2C1081.23 461.2 1072.03 494.4 1065.63 526.8C1064.43 532.4 1063.43 538.2 1062.63 544.2C1061.83 550.2 1061.43 556 1061.43 561.6C1061.43 570.8 1062.43 577.6 1064.43 582C1066.83 586.4 1069.43 589.6 1072.23 591.6C1075.43 593.6 1078.03 595.2 1080.03 596.4C1082.43 598 1083.63 600.6 1083.63 604.2C1083.63 609.4 1081.03 612 1075.83 612Z" fill="#FFD500" fill-opacity="0.08"/>
</svg>
