<svg width="75" height="75" viewBox="0 0 75 75" fill="none" xmlns="http://www.w3.org/2000/svg">
<circle cx="37.5" cy="37.5" r="35.5" stroke="#F2CB05" stroke-width="4"/>
<path d="M34.448 54.948C34.448 55.388 34.4553 55.6593 34.47 55.762L34.602 55.74C34.7927 55.7107 35.02 55.7107 35.284 55.74C35.548 55.7693 35.768 55.784 35.944 55.784L35.812 58.974C35.5773 59.0473 35.3427 59.0693 35.108 59.04C34.888 58.996 34.6753 58.996 34.47 59.04C34.47 59.0253 34.4627 59.106 34.448 59.282C34.4333 59.4433 34.4113 59.6633 34.382 59.942C34.3673 60.206 34.3453 60.4993 34.316 60.822C34.3013 61.13 34.2793 61.4307 34.25 61.724C34.2353 62.0173 34.2207 62.274 34.206 62.494C34.1913 62.714 34.1767 62.8533 34.162 62.912C34.074 63.0147 33.7733 63.0587 33.26 63.044C32.7613 63.044 32.006 63.0513 30.994 63.066C30.9793 63.0513 30.9793 62.9413 30.994 62.736C31.0087 62.5307 31.0233 62.2813 31.038 61.988C31.0527 61.68 31.0673 61.35 31.082 60.998C31.1113 60.646 31.1333 60.316 31.148 60.008C31.1773 59.7 31.1993 59.436 31.214 59.216C31.2287 58.996 31.236 58.8713 31.236 58.842C31.1773 58.8273 31.0233 58.8127 30.774 58.798C30.5247 58.7833 30.224 58.776 29.872 58.776C29.5347 58.776 29.168 58.7833 28.772 58.798C28.3907 58.798 28.0313 58.798 27.694 58.798C27.3713 58.798 27.1 58.798 26.88 58.798C26.66 58.7833 26.5427 58.7613 26.528 58.732C26.4987 58.6293 26.4473 58.292 26.374 57.72C26.3007 57.148 26.2787 56.422 26.308 55.542C26.4547 55.3367 26.6307 55.0433 26.836 54.662C27.0413 54.266 27.32 53.7527 27.672 53.122C28.0387 52.4767 28.4933 51.6993 29.036 50.79C29.5933 49.8807 30.2827 48.81 31.104 47.578C31.104 47.5633 31.1113 47.556 31.126 47.556C31.1847 47.556 31.3753 47.556 31.698 47.556C32.0353 47.5413 32.3947 47.534 32.776 47.534C33.1573 47.5193 33.524 47.512 33.876 47.512C34.228 47.4973 34.4627 47.4973 34.58 47.512H34.624C34.624 47.5267 34.6167 47.7247 34.602 48.106C34.5873 48.4873 34.5727 48.9713 34.558 49.558C34.5433 50.13 34.5213 50.7607 34.492 51.45C34.4773 52.1247 34.4627 52.7627 34.448 53.364C34.448 53.9653 34.448 54.4933 34.448 54.948ZM31.192 55.828C31.5147 55.828 31.7273 55.8207 31.83 55.806L31.896 51.098C31.8813 51.01 31.8007 51.0687 31.654 51.274C31.522 51.4647 31.346 51.7287 31.126 52.066C30.9207 52.4033 30.6933 52.7847 30.444 53.21C30.1947 53.6207 29.96 54.0167 29.74 54.398C29.52 54.7647 29.3293 55.08 29.168 55.344C29.0213 55.608 28.9407 55.7547 28.926 55.784C28.926 55.784 29.058 55.7913 29.322 55.806C29.586 55.806 29.8867 55.8133 30.224 55.828C30.5613 55.828 30.884 55.828 31.192 55.828ZM46.4325 51.846C46.4912 53.21 46.4838 54.596 46.4105 56.004L46.3445 63.022C46.1245 62.9927 45.8825 62.978 45.6185 62.978C45.3545 62.978 45.0905 62.978 44.8265 62.978C44.5625 62.978 44.3058 62.9853 44.0565 63C43.8218 63 43.6165 63 43.4405 63C43.4112 62.3693 43.3892 61.6873 43.3745 60.954C43.3745 60.2207 43.3672 59.4727 43.3525 58.71C43.3525 57.9473 43.3305 57.1993 43.2865 56.466C43.2572 55.7327 43.2058 55.058 43.1325 54.442C43.0298 54.6033 42.9125 54.86 42.7805 55.212C42.6485 55.5493 42.5165 55.9013 42.3845 56.268C42.2525 56.6347 42.1278 56.9573 42.0105 57.236C41.8932 57.5147 41.8052 57.654 41.7465 57.654C41.6732 57.654 41.5852 57.5807 41.4825 57.434C41.3945 57.2727 41.2992 57.0747 41.1965 56.84C41.1085 56.6053 41.0132 56.356 40.9105 56.092C40.8078 55.828 40.7198 55.586 40.6465 55.366C40.5732 55.146 40.5072 54.9627 40.4485 54.816C40.4045 54.6693 40.3825 54.596 40.3825 54.596C40.2652 55.9747 40.2212 57.368 40.2505 58.776C40.2945 60.184 40.3605 61.57 40.4485 62.934C39.9792 63.0073 39.4658 63.0367 38.9085 63.022C38.3512 63.0073 37.8378 63 37.3685 63C37.3392 63 37.3172 62.978 37.3025 62.934C37.2878 62.8753 37.2732 62.736 37.2585 62.516C37.2438 62.296 37.2292 61.966 37.2145 61.526C37.2145 61.0713 37.2145 60.4773 37.2145 59.744C37.2145 59.0107 37.2145 58.1013 37.2145 57.016C37.2292 55.9307 37.2365 54.64 37.2365 53.144C37.2512 51.648 37.2658 49.9027 37.2805 47.908C37.4712 47.8493 37.6912 47.8127 37.9405 47.798C38.1898 47.7833 38.4465 47.7833 38.7105 47.798C38.9745 47.798 39.2385 47.8053 39.5025 47.82C39.7665 47.82 40.0232 47.8127 40.2725 47.798H40.2945C40.4265 47.9447 40.5585 48.172 40.6905 48.48C40.8225 48.7733 40.9472 49.0887 41.0645 49.426C41.1818 49.7633 41.2918 50.086 41.3945 50.394C41.5118 50.702 41.6292 50.944 41.7465 51.12C41.7905 51.164 41.8345 51.186 41.8785 51.186C41.9225 51.2007 41.9885 51.0613 42.0765 50.768C42.1792 50.4747 42.2818 50.1373 42.3845 49.756C42.5018 49.36 42.6265 48.9713 42.7585 48.59C42.9052 48.2087 43.0445 47.93 43.1765 47.754C43.2792 47.7687 43.4625 47.7687 43.7265 47.754C44.0052 47.7393 44.2985 47.7247 44.6065 47.71C44.9292 47.6953 45.2518 47.688 45.5745 47.688C45.9118 47.6733 46.1978 47.666 46.4325 47.666C46.3738 49.074 46.3738 50.4673 46.4325 51.846Z" fill="#F2CB57"/>
<path fill-rule="evenodd" clip-rule="evenodd" d="M49.568 32.498C52.1244 32.8123 53.7421 34.1301 53.7421 36.4567C53.7421 39.1799 51.533 40.7078 47.9523 41.4042C45.6082 41.8611 42.9248 41.989 38.2743 41.9982L36.9345 42H35.4697C30.8173 41.989 28.1338 41.8592 25.7897 41.4042C22.2111 40.7096 20 39.1781 20 36.4567C20 34.1301 21.6176 32.8123 24.1741 32.498C25.6627 32.3152 26.5162 32.3554 30.9463 32.7008C33.4671 32.8982 35.0986 32.986 36.871 32.986C38.6435 32.986 40.277 32.8982 42.7957 32.7027C47.2259 32.3554 48.0794 32.3134 49.568 32.498ZM38.2644 38.3428C46.3307 38.3282 49.7724 37.6593 49.7724 36.4567C49.7724 36.3635 49.7764 36.3068 49.7486 36.2666C49.697 36.1935 49.5382 36.1807 49.04 36.1204C47.9821 35.9906 47.1306 36.0308 43.1312 36.3434C40.5092 36.5481 38.7844 36.6413 36.871 36.6413C34.9596 36.6413 33.2328 36.5499 30.6109 36.3434C26.6115 36.0327 25.76 35.9906 24.7021 36.1204C24.2058 36.1807 24.0451 36.1935 23.9935 36.2666C23.9657 36.3068 23.9697 36.3635 23.9697 36.4567C23.9697 37.6593 27.4113 38.3282 35.4777 38.3428L36.8075 38.3447H36.9345L38.2644 38.3428Z" fill="#F2CB57" fill-opacity="0.94902"/>
<path d="M22.2972 26.4579C22.1298 26.5577 21.9422 26.6255 21.7457 26.6572C21.5493 26.6889 21.3479 26.684 21.1535 26.6426C20.9592 26.6013 20.7758 26.5244 20.6144 26.4165C20.453 26.3087 20.3167 26.172 20.2137 26.0147C20.1107 25.8574 20.0431 25.6827 20.0149 25.5008C19.9868 25.319 19.9985 25.1338 20.0496 24.9562C20.1006 24.7787 20.1899 24.6124 20.3121 24.4672C20.4343 24.3221 20.587 24.201 20.761 24.1112C22.0499 23.3837 23.5324 22.9991 25.0442 23C26.0763 23 26.6916 23.1681 27.6166 23.5849L27.6404 23.5958C28.212 23.8517 28.4343 23.9138 28.9722 23.9138C29.4942 23.9138 29.6808 23.859 30.1829 23.6159L30.2048 23.605C31.0841 23.1773 31.6934 23 32.7374 23C33.8013 23 34.4126 23.1828 35.2939 23.6214C35.7821 23.8663 35.9409 23.9138 36.4153 23.9138C36.8897 23.9138 37.0465 23.8663 37.5248 23.6269C38.416 23.1828 39.0273 23 40.0912 23C41.1432 23 41.7505 23.1773 42.6457 23.6086L42.6556 23.6141C43.1677 23.8608 43.3503 23.9138 43.8584 23.9138C44.3685 23.9138 44.5571 23.859 45.0791 23.6104C45.9921 23.1755 46.6014 23 47.6474 23C49.146 23 50.6108 23.3655 52.022 24.0856C52.3564 24.2668 52.6007 24.5611 52.703 24.9057C52.8052 25.2503 52.7573 25.6181 52.5695 25.9307C52.3816 26.2433 52.0687 26.476 51.6973 26.5792C51.3259 26.6825 50.9253 26.6482 50.581 26.4835C49.6005 25.9846 48.6279 25.7415 47.6474 25.7415C47.1572 25.7415 46.9766 25.7927 46.4605 26.0394L46.4486 26.0449C45.5415 26.478 44.9243 26.6553 43.8584 26.6553C42.7906 26.6553 42.1753 26.4762 41.2722 26.0412L41.2623 26.0357C40.7581 25.7927 40.5815 25.7415 40.0912 25.7415C39.601 25.7415 39.4382 25.7908 38.9559 26.0321C38.0706 26.4744 37.4653 26.6553 36.4153 26.6553C35.3653 26.6553 34.76 26.4744 33.8827 26.0357C33.3904 25.7908 33.2277 25.7415 32.7374 25.7415C32.2551 25.7415 32.0824 25.7908 31.5981 26.0284L31.5743 26.0394C30.6811 26.4744 30.0519 26.6553 28.9722 26.6553C27.9063 26.6553 27.2772 26.4835 26.3344 26.0595L26.3105 26.0485C25.7548 25.8 25.5464 25.7415 25.0442 25.7415C24.0717 25.7415 23.1646 25.9773 22.2972 26.4579ZM22.5215 27.5692H50.3091C52.9549 27.5692 52.9549 31.2245 50.3091 31.2245H22.5215C19.8757 31.2245 19.8757 27.5692 22.5215 27.5692Z" fill="#F2CB57" fill-opacity="0.94902"/>
<path fill-rule="evenodd" clip-rule="evenodd" d="M49.1313 22.2722C52.0371 21.6654 53.75 20.0278 53.75 17.3448C53.75 11.6608 46.2791 8 36.879 8C27.4768 8 20.0079 11.6608 20.0079 17.3448C20.0079 20.0278 21.7208 21.6654 24.6266 22.2704C26.4725 22.656 28.0604 22.6798 32.8815 22.5537C34.2136 22.5124 35.5462 22.4898 36.879 22.486C38.0381 22.486 39.0504 22.5043 40.8764 22.5537C45.6995 22.6816 47.2854 22.656 49.1333 22.2704M36.879 11.6535C44.3776 11.6535 49.7803 14.2999 49.7803 17.343C49.7803 18.1618 49.4806 18.4487 48.254 18.7046C46.8805 18.9916 45.3939 19.0135 40.9895 18.8965C39.6198 18.8553 38.2494 18.8333 36.879 18.8307C35.6722 18.8307 34.6302 18.849 32.7684 18.8983C28.3621 19.0153 26.8774 18.9934 25.5039 18.7064C24.2773 18.4506 23.9756 18.1636 23.9756 17.3448C23.9756 14.3018 29.3803 11.6553 36.877 11.6553" fill="#F2CB57" fill-opacity="0.94902"/>
<path d="M29.1381 16.4054C29.1381 16.6962 29.0127 16.9752 28.7893 17.1808C28.566 17.3865 28.2631 17.502 27.9472 17.502C27.6314 17.502 27.3285 17.3865 27.1052 17.1808C26.8818 16.9752 26.7563 16.6962 26.7563 16.4054C26.7563 16.1146 26.8818 15.8356 27.1052 15.63C27.3285 15.4243 27.6314 15.3088 27.9472 15.3088C28.2631 15.3088 28.566 15.4243 28.7893 15.63C29.0127 15.8356 29.1381 16.1146 29.1381 16.4054ZM34.1002 14.5777C34.1002 14.8686 33.9747 15.1475 33.7514 15.3531C33.5281 15.5588 33.2252 15.6743 32.9093 15.6743C32.5935 15.6743 32.2906 15.5588 32.0672 15.3531C31.8439 15.1475 31.7184 14.8686 31.7184 14.5777C31.7184 14.2869 31.8439 14.008 32.0672 13.8023C32.2906 13.5967 32.5935 13.4811 32.9093 13.4811C33.2252 13.4811 33.5281 13.5967 33.7514 13.8023C33.9747 14.008 34.1002 14.2869 34.1002 14.5777ZM38.0699 17.3192C38.0699 17.6101 37.9444 17.889 37.7211 18.0946C37.4977 18.3003 37.1948 18.4158 36.879 18.4158C36.5631 18.4158 36.2602 18.3003 36.0369 18.0946C35.8135 17.889 35.6881 17.6101 35.6881 17.3192C35.6881 17.0284 35.8135 16.7495 36.0369 16.5438C36.2602 16.3382 36.5631 16.2226 36.879 16.2226C37.1948 16.2226 37.4977 16.3382 37.7211 16.5438C37.9444 16.7495 38.0699 17.0284 38.0699 17.3192ZM42.0395 14.5777C42.0395 14.8686 41.914 15.1475 41.6907 15.3531C41.4674 15.5588 41.1645 15.6743 40.8486 15.6743C40.5328 15.6743 40.2299 15.5588 40.0065 15.3531C39.7832 15.1475 39.6577 14.8686 39.6577 14.5777C39.6577 14.2869 39.7832 14.008 40.0065 13.8023C40.2299 13.5967 40.5328 13.4811 40.8486 13.4811C41.1645 13.4811 41.4674 13.5967 41.6907 13.8023C41.914 14.008 42.0395 14.2869 42.0395 14.5777ZM47.0016 16.4054C47.0016 16.6962 46.8761 16.9752 46.6528 17.1808C46.4294 17.3865 46.1265 17.502 45.8107 17.502C45.4948 17.502 45.1919 17.3865 44.9686 17.1808C44.7453 16.9752 44.6198 16.6962 44.6198 16.4054C44.6198 16.1146 44.7453 15.8356 44.9686 15.63C45.1919 15.4243 45.4948 15.3088 45.8107 15.3088C46.1265 15.3088 46.4294 15.4243 46.6528 15.63C46.8761 15.8356 47.0016 16.1146 47.0016 16.4054Z" fill="#F2CB57" fill-opacity="0.94902"/>
</svg>
